PathFileType	4	(X/Y/Z)	Apose_0-124.trc
DataRate	CameraRate	NumFrames	NumMarkers	Units	OrigDataRate	OrigDataStartFrame	OrigNumFrames
30	30	7	22	m	30	77	124
Frame#	Time	Hip			RHip			RKnee			RAnkle			RBigToe			RSmallToe			RHeel			LHip			LKnee			LAnkle			LBigToe			LSmallToe			LHeel			Neck			Head			Nose			RShoulder			RElbow			RWrist			LShoulder			LElbow			LWrist		
		X1	Y1	Z1	X2	Y2	Z2	X3	Y3	Z3	X4	Y4	Z4	X5	Y5	Z5	X6	Y6	Z6	X7	Y7	Z7	X8	Y8	Z8	X9	Y9	Z9	X10	Y10	Z10	X11	Y11	Z11	X12	Y12	Z12	X13	Y13	Z13	X14	Y14	Z14	X15	Y15	Z15	X16	Y16	Z16	X17	Y17	Z17	X18	Y18	Z18	X19	Y19	Z19	X20	Y20	Z20	X21	Y21	Z21	X22	Y22	Z22
78	2.6	0.8077555608798374	0.8500992769615976	0.3488111888836893	0.816787805295693	0.812335727137645	0.2632834458641875	0.8316970410295772	0.4668664429025722	0.2717051262168779	0.8385577737733982	0.11282291737657062	0.28579843067559557	0.6760767561128234	0.03853817116599305	0.21854601789114622	0.732946856004759	0.03327878983072987	0.1700711457455473	0.8671828070250512	0.039953611712629705	0.2989411947517146	0.8088191107141433	0.8091819655347847	0.43835494967613764	0.8311169457957603	0.4864961445679883	0.4292672322425656	0.8474817226162232	0.10775771723460838	0.4269386991639309	0.6703740106411118	0.04255697855284574	0.4644077195496247	0.7265870718329877	0.0318226586389148	0.517075231770875	0.8827276410518252	0.03893510596430175	0.42050082505564507	0.8132077116066895	1.4598416079103043	0.3580647228530025	0.794367042946359	1.684512292910781	0.3806235818315019	0.7021226108946095	1.5722518591681767	0.36854294094383	0.8413654470138421	1.375092984653577	0.17492213611758978	0.8674533566839666	1.187719118628634	-0.015602772478866064	0.8403236393242433	1.0922897725113436	-0.19362777651125515	0.8190929310317915	1.3677462674511753	0.5409835345418943	0.8108304583512915	1.1620658265272954	0.7345975919379396	0.7698948735780061	1.0654092609764165	0.8862986561764316
79	2.6333333333333333	0.8067322638846512	0.8502184200725286	0.3483966003828092	0.8157579257819952	0.812667616495727	0.2629554303047989	0.8312054969829349	0.4671632889119116	0.2718049231855645	0.8384218744352973	0.1128769994709715	0.2858868637440488	0.675751013736663	0.03889675503430022	0.21840726752986767	0.7328580178209742	0.033707984078311985	0.17025951810299045	0.8671433321380503	0.039970372588512486	0.2989650616051341	0.8075848285193473	0.8094043431890003	0.4381110169473436	0.8305335677839514	0.4867774770105194	0.4287238287778509	0.8471132964302648	0.10784723002843734	0.42703856865851264	0.6700910657240964	0.04333426261556341	0.4658050618984128	0.7261245951706669	0.031892176171604496	0.5169427046716055	0.8828010428907275	0.039228159880504695	0.42037389569893435	0.8128684602442567	1.4597586988635889	0.35825208678129816	0.7948322302956099	1.6846686544307827	0.38023992405398654	0.7033015524917908	1.5723848502271325	0.3629730675097935	0.8415492500522821	1.3755836947655473	0.17533848252261175	0.8647581284261346	1.189217022772241	-0.014007158791672396	0.839272450836501	1.0909093239445937	-0.19295496285392244	0.8186159346427218	1.3675294344082076	0.541438780982646	0.811154786025907	1.1620053328177693	0.7347364217281714	0.7702541572272321	1.0652959395142032	0.8866475124156764
80	2.6666666666666665	0.8058254399262045	0.8503591004397554	0.34797050398047913	0.8148822881429891	0.8130968665010085	0.2627145144161063	0.8308644668995203	0.4674337984471495	0.2721672815300621	0.8380820637823235	0.11267480896662924	0.28619077471536025	0.6751446688057546	0.039296796568714876	0.2177812394903889	0.7326068692186627	0.03401548307629149	0.17041194046725613	0.8670195638989396	0.03977849692406302	0.29911228990415656	0.8063246742987481	0.8097482986484125	0.4377218925963311	0.8299700440075095	0.48711350746219717	0.42826114947201566	0.8469506874117287	0.10821606570608991	0.42697436157488927	0.6700488858483502	0.043571077426600095	0.4667209680022156	0.7258244064924055	0.03183712362710183	0.5167655908129565	0.8829784234690061	0.03945587692639792	0.4203806472353145	0.8123783619424716	1.4597703231187016	0.3585619180545477	0.7954492464463566	1.684966484073325	0.37984182774660585	0.7025386032786952	1.5731662686202128	0.35300055771586847	0.8415899004711845	1.3757650981806904	0.17550682895740896	0.8616332353164895	1.1910154349206759	-0.011996410010433368	0.8379124637637198	1.0894474624829955	-0.19233134841848523	0.8181124937842337	1.3673485706524042	0.5418384358982855	0.8115078463201646	1.1619244017941235	0.7349392493828041	0.7707668666885336	1.0651913259191155	0.8871274536075544
81	2.7	0.8050822883501616	0.850517160325658	0.34759903516420976	0.8141493159631757	0.8134493368884976	0.26264025716703293	0.8307060083989051	0.4674574451439077	0.2728024259074894	0.8376439381057189	0.1121859120817424	0.2866695977855284	0.6743881487481197	0.039572234817461645	0.21685064933595016	0.732241502885579	0.034071468407881486	0.17055795333997828	0.8668049455729947	0.03942782272691536	0.2993596572385251	0.8051683251927418	0.810123207312347	0.4372743032756974	0.8294465362492752	0.4874003185580119	0.4279989865749438	0.8469898658208945	0.1085878731840865	0.4267782611422235	0.670204214363602	0.0433656484645988	0.46721837462691457	0.7257995419954066	0.03168891352996112	0.5166045436813044	0.883188717532911	0.03949673593145417	0.420592987604326	0.8118491791234166	1.4598743697554668	0.35897566529818525	0.7960650839356218	1.685204497074797	0.3796942774583334	0.7012316222644446	1.5740920515610277	0.34298001312577453	0.8411950048016603	1.3755360431960828	0.17524691191419972	0.858786944110596	1.19254712855638	-0.01024093782061868	0.8361938832540905	1.088215716409406	-0.19188744558497112	0.8176388725396607	1.3672588645104138	0.542057918148606	0.811849045500128	1.1617460138989346	0.7351486313192872	0.7712762305734644	1.0650567952941292	0.8874917232527775
82	2.7333333333333334	0.8045106627672112	0.8506933899069573	0.34736300603750636	0.8135476736951808	0.8135936114744332	0.2627419795943466	0.8306374146687039	0.4671605707247576	0.273623644914599	0.8373098221777365	0.11148091410893052	0.28720012202430967	0.6736947920645961	0.03961057880408473	0.2159833920667682	0.7318540639655665	0.033859006839840146	0.1707242158982414	0.8665670371700762	0.03904785520553975	0.2996763474793308	0.8042596580581178	0.8104265663805521	0.4369026906280196	0.8289597450286021	0.4875412124668445	0.4280361586009102	0.8471455725402632	0.10867175278783357	0.4265901702957973	0.6704526294414827	0.04285380444491062	0.4674344703179684	0.7260382200040826	0.03149722664714976	0.51650931311645	0.8833017834559003	0.03928928485791579	0.4209994563544654	0.8114006298679076	1.4600261794801608	0.35947492834003625	0.7965627952866414	1.6852573024671769	0.3798994953764531	0.6985624667895435	1.575101225875646	0.33709454835727476	0.8403414049950665	1.375028460185035	0.17468760273778833	0.8571019188826452	1.1931473182995533	-0.009583302250093054	0.8344241041240685	1.0873545919964924	-0.19146482346652358	0.8172058036211279	1.367257990267181	0.5420547629393104	0.8121629796598606	1.16141027349694	0.7353394059817412	0.7715340898137065	1.0648374096268203	0.8875168090488051
83	2.7666666666666666	0.8040626684970344	0.8508844217969564	0.34730128167617813	0.8130344193881575	0.8134758808173318	0.2629884404404619	0.8305051219970183	0.4666462035207168	0.27448251311290817	0.8372313543481033	0.11073458635291124	0.28765490147949285	0.6731457273891647	0.03942490931466666	0.21540444241039816	0.731513921985315	0.03345684783294879	0.17089077938218236	0.8664153866158238	0.038779570027845864	0.3000444711107848	0.8036686934531415	0.810560378097798	0.43670778248950526	0.8284536705329477	0.48747375030373785	0.4283763550567941	0.8472221849339892	0.10821782502874083	0.4266046033731869	0.6706734613828568	0.04214766808778009	0.467486145729795	0.7264368227758043	0.03128464757842698	0.5164958468058465	0.8832744530924781	0.03884327532129435	0.42151627897016497	0.8110592915216939	1.460176698260185	0.3600115155434957	0.7968510704237537	1.685088185760436	0.3803697132430812	0.693451081966235	1.576256173623103	0.3369919205495694	0.8393110231109219	1.3745780611563017	0.17425535227573724	0.8568259013470862	1.192604575424956	-0.010284431495171251	0.8329716938643656	1.0868891036215464	-0.19085907239386773	0.8167803801510092	1.367257709325503	0.5418740984191888	0.8124123834816548	1.1609222305005105	0.7354736994943625	0.7712762326171352	1.0645439762031537	0.8870823348326411
84	2.8	0.8036575463459014	0.851078826660512	0.347370289300916	0.8125217170844147	0.8131079087903166	0.2633526221051903	0.8301811032301585	0.4660957313866747	0.2752126509777496	0.8374001433457041	0.11015784992453902	0.2879487296318372	0.6726630913930941	0.03905636231635278	0.21515323704846318	0.7312232029730514	0.0329769467803532	0.17099705390362385	0.8664301195069879	0.03870151569877728	0.30044966434056575	0.8033134066250673	0.8104787117340877	0.43669253000328634	0.8278530163634704	0.48723070574686655	0.42891377548546117	0.8470980852523597	0.10722172585604635	0.4268824440165847	0.670774001822816	0.04133783532095165	0.4674010221302417	0.7268836339602113	0.03104074441587186	0.5165327672261355	0.8832187802905277	0.03822156126109803	0.42206132219173315	0.8107630691860608	1.460309713628492	0.3605039800271178	0.7968777932369746	1.6847050052806558	0.38092762361902066	0.6869471226620906	1.5773434898298009	0.34091183105282286	0.8383421607493178	1.374386973106264	0.17418852267897364	0.8571485506259471	1.1914455070160115	-0.011590342032097726	0.8319775420829031	1.0867396253067632	-0.19008001426171517	0.8163143152791993	1.3671459193673847	0.5415816240257671	0.8124993121490534	1.16036560779258	0.7354442575867207	0.7704593139634922	1.0642472262661533	0.88625213029865
